<?xml version="1.0" standalone="no"?>
<!DOCTYPE svg PUBLIC "-//W3C//DTD SVG 20010904//EN"
 "http://www.w3.org/TR/2001/REC-SVG-20010904/DTD/svg10.dtd">
<svg version="1.0" xmlns="http://www.w3.org/2000/svg"
 width="298.000000pt" height="298.000000pt" viewBox="0 0 298.000000 298.000000"
 preserveAspectRatio="xMidYMid meet">
<metadata>
Created by potrace 1.14, written by Peter Selinger 2001-2017
</metadata>
<g transform="translate(0.000000,298.000000) scale(0.100000,-0.100000)"
fill="#000000" stroke="none">
<path d="M535 2884 c-258 -184 -335 -244 -354 -281 -8 -16 -11 -355 -11 -1243
0 -1193 1 -1222 20 -1260 25 -48 66 -78 122 -88 55 -9 611 -7 663 2 49 9 99
46 122 89 16 29 18 71 19 400 1 202 4 371 8 375 4 4 174 7 377 7 321 0 369 -2
370 -15 0 -8 2 -177 3 -375 2 -377 4 -393 48 -435 53 -51 70 -53 424 -53 322
0 332 0 377 22 28 14 55 37 69 59 l23 37 0 1242 0 1242 -35 36 c-33 34 -260
209 -325 251 -16 10 -32 21 -35 25 -3 4 -20 16 -39 27 l-33 20 -32 -21 c-64
-45 -253 -183 -324 -239 -128 -99 -117 -54 -119 -488 -1 -206 -2 -380 -2 -387
-1 -16 -751 -15 -752 1 0 6 -1 180 -2 386 -2 314 -4 379 -17 398 -20 32 -425
354 -441 351 -2 0 -58 -39 -124 -85z"/>
</g>
</svg>
